PathFileType	4	(X/Y/Z)	Squat.trc	
DataRate	CameraRate	NumFrames	NumMarkers	Units	OrigDataRate	OrigDataStartFrame	OrigNumFrames	
100.00	100.00	55	6	mm	100.00	2121	1542	
Frame#	Time	RAsis			SACR			LThighInferior			LThighLateral			LAsis			LThighSuperior			
		X1	Y1	Z1	X2	Y2	Z2	X3	Y3	Z3	X4	Y4	Z4	X5	Y5	Z5	X6	Y6	Z6	

1350	13.490	551.03656	1202.72034	494.70715	432.85553	1052.83679	557.43286	197.85165	1353.51697	400.45087	241.03619	1297.12036	502.13251	305.34869	1210.66699	499.95535	207.72012	1209.04346	431.03967 
1351	13.500	550.80786	1202.35376	493.67688	432.86160	1052.55713	556.58301	197.87178	1353.68750	399.98816	240.94072	1297.20801	501.48868	305.27814	1210.68665	498.99039	207.66306	1209.13281	430.12439 
1352	13.510	550.55975	1202.06519	492.67981	432.58557	1052.42480	555.53949	197.85042	1353.92041	399.57761	240.85451	1297.27075	500.88904	305.24442	1210.65637	498.06335	207.64806	1209.17957	429.30609 
1353	13.520	550.35931	1201.88110	491.78906	432.18057	1052.60486	554.28619	197.77046	1354.15027	399.15961	240.81546	1297.24329	500.30911	305.18216	1210.59595	497.19183	207.49568	1209.38037	428.69324 
1354	13.530	550.30487	1201.77783	491.01550	432.05444	1052.50110	553.15747	197.65524	1354.34106	398.79559	240.78560	1297.21057	499.79486	305.07568	1210.54919	496.43085	207.19675	1209.61609	428.08719 
1355	13.540	550.38983	1201.75623	490.34543	432.06458	1052.03882	552.26892	197.56815	1354.47583	398.45407	240.68558	1297.22437	499.35587	304.97296	1210.47888	495.75266	206.94916	1209.70398	427.37875 
1356	13.550	550.41345	1201.77063	489.73001	431.76947	1051.83203	551.37311	197.45900	1354.56848	398.03473	240.48050	1297.21118	498.95935	304.83606	1210.37915	495.12985	206.82220	1209.72522	426.76907 
1357	13.560	550.34314	1201.80725	489.13516	431.39743	1051.77637	550.39935	197.30150	1354.66187	397.64212	240.19730	1297.16125	498.60236	304.60886	1210.29565	494.57727	206.64874	1209.77380	426.25601 
1358	13.570	550.15411	1201.70691	488.44357	431.16553	1051.63245	549.43939	197.14200	1354.69006	397.31372	239.89769	1297.10156	498.24509	304.35919	1210.20459	494.03937	206.34918	1209.89270	425.76614 
1359	13.580	549.86200	1201.44153	487.67670	430.91913	1051.48340	548.64276	196.92836	1354.65210	396.97687	239.60800	1297.00635	497.87354	304.12851	1210.07202	493.48416	206.01154	1209.96533	425.22205 
1360	13.590	549.56793	1201.13489	487.00131	430.74680	1051.34229	548.10535	196.59883	1354.69775	396.72055	239.34598	1296.85339	497.54926	303.89587	1209.88599	492.93503	205.68388	1209.87720	424.65323 
1361	13.600	549.21741	1200.75586	486.41281	430.67065	1051.25879	547.61243	196.23006	1354.76245	396.55688	239.05185	1296.69104	497.25244	303.68015	1209.71643	492.44229	205.37962	1209.78577	424.24802 
1362	13.610	548.85339	1200.38086	485.86176	430.45581	1051.22424	547.01489	195.90640	1354.72717	396.39285	238.66821	1296.54187	496.92310	303.45242	1209.63953	492.00717	205.11221	1209.74170	423.92709 
1363	13.620	548.58307	1200.12659	485.33875	430.12650	1051.17566	546.41888	195.59221	1354.62354	396.15146	238.29422	1296.40759	496.61755	303.17096	1209.60461	491.54898	204.84795	1209.67053	423.60754 
1364	13.630	548.40198	1199.99780	484.89764	429.80829	1051.09973	545.84583	195.24599	1354.44678	395.82584	237.96115	1296.29626	496.36630	302.90936	1209.50317	491.07224	204.51680	1209.60596	423.25140 
1365	13.640	548.28571	1199.94250	484.59250	429.50592	1050.99207	545.23590	194.87279	1354.28577	395.53070	237.64110	1296.16479	496.12378	302.71454	1209.35339	490.62729	204.15804	1209.51257	422.77347 
1366	13.650	548.17474	1199.89478	484.34674	429.23407	1050.85632	544.68030	194.48152	1354.21472	395.33072	237.30461	1296.00073	495.87442	302.46588	1209.29846	490.24161	203.86119	1209.34900	422.30707 
1367	13.660	548.06433	1199.88049	484.10019	428.97470	1050.68738	544.24658	194.11452	1354.12537	395.18094	236.93343	1295.79578	495.62622	302.15588	1209.26379	489.91574	203.61859	1209.13916	421.95645 
1368	13.670	547.97247	1199.89368	483.87363	428.74973	1050.47217	543.90460	193.78232	1353.97119	395.00781	236.57263	1295.53516	495.37564	301.92029	1209.09644	489.59329	203.45335	1208.84595	421.62936 
1369	13.680	547.89148	1199.88550	483.66278	428.55121	1050.29761	543.61621	193.49170	1353.79480	394.84155	236.22955	1295.28528	495.13663	301.71902	1208.90808	489.30127	203.28368	1208.58557	421.35431 
1370	13.690	547.78516	1199.80786	483.45612	428.31635	1050.23096	543.32397	193.24841	1353.63489	394.74274	235.88829	1295.07104	494.93549	301.43509	1208.81055	489.07886	202.98438	1208.47583	421.18723 
1371	13.700	547.47076	1199.48083	483.15790	428.04721	1050.13367	543.00140	193.00462	1353.48328	394.66116	235.56792	1294.86328	494.77246	301.15921	1208.68286	488.86404	202.65479	1208.36218	421.00616 
1372	13.710	546.85248	1198.80591	482.64359	427.76477	1050.00208	542.69781	192.75928	1353.31873	394.58612	235.29407	1294.68884	494.66971	300.96600	1208.47278	488.65103	202.41187	1208.12695	420.76370 
1373	13.720	546.67004	1198.75256	482.51453	427.52145	1049.91125	542.45929	192.52217	1353.16052	394.52734	235.05933	1294.53760	494.59143	300.76794	1208.29517	488.46826	202.19202	1207.89172	420.54968 
1374	13.730	546.41449	1198.65125	482.38144	427.28885	1049.83740	542.25665	192.29755	1352.98364	394.40378	234.83427	1294.36841	494.47144	300.54575	1208.15955	488.30252	201.92767	1207.77356	420.40680 
1375	13.740	546.14490	1198.52917	482.27197	427.05591	1049.76624	542.12866	192.10077	1352.77222	394.19388	234.61945	1294.17822	494.33948	300.34955	1207.97729	488.12833	201.68591	1207.70264	420.27182 
1376	13.750	545.85718	1198.38721	482.19629	426.91302	1049.66528	542.01453	191.92973	1352.61279	394.00464	234.43065	1294.00146	494.23764	300.16977	1207.81506	487.96008	201.51793	1207.59485	420.10349 
1377	13.760	545.52356	1198.16919	482.10928	426.70035	1049.59961	541.78607	191.77663	1352.55396	393.91476	234.24971	1293.85815	494.16223	299.94644	1207.77087	487.85245	201.37993	1207.45264	419.93835 
1378	13.770	545.27911	1198.01147	482.03806	426.36774	1049.59692	541.58521	191.60887	1352.54492	393.85840	234.04335	1293.75879	494.09845	299.73788	1207.71545	487.76199	201.23180	1207.33252	419.81702 
1379	13.780	545.11810	1197.97546	482.03616	426.11243	1049.54932	541.48358	191.43761	1352.55005	393.76492	233.80865	1293.68164	494.01700	299.58383	1207.61926	487.64816	201.07454	1207.26685	419.70105 
1380	13.790	544.93567	1197.92688	482.06955	425.88202	1049.41785	541.39148	191.28587	1352.55945	393.66272	233.58618	1293.58093	493.91370	299.39496	1207.57654	487.57629	200.92383	1207.23926	419.56360 
1381	13.800	544.80267	1197.87549	482.12961	425.68823	1049.26440	541.36804	191.14256	1352.54041	393.58588	233.39238	1293.51416	493.84695	299.13699	1207.61609	487.58731	200.76945	1207.24963	419.46765 
1382	13.810	544.71008	1197.85034	482.19858	425.50714	1049.17224	541.41925	191.02727	1352.51196	393.54706	233.20184	1293.51221	493.85059	298.88589	1207.68457	487.63330	200.57869	1207.30530	419.42398 
1383	13.820	544.56140	1197.84082	482.19366	425.19522	1049.13550	541.41302	190.91464	1352.56177	393.55402	233.00735	1293.54724	493.89240	298.70010	1207.65283	487.67084	200.35043	1207.39575	419.44092 
1384	13.830	544.35431	1197.84497	482.16382	424.91202	1049.08545	541.39789	190.71280	1352.72388	393.61206	232.82422	1293.59229	493.95444	298.49356	1207.60925	487.73181	200.09703	1207.49927	419.52695 
1385	13.840	544.14252	1197.84290	482.22107	424.72147	1049.01343	541.43787	190.53304	1352.83752	393.67319	232.65437	1293.61182	494.03107	298.27963	1207.57117	487.78409	199.85715	1207.61145	419.65024 
1386	13.850	543.91632	1197.77148	482.28442	424.55371	1048.91541	541.47144	190.44502	1352.85437	393.71085	232.49849	1293.60486	494.08484	298.14810	1207.41809	487.80743	199.68433	1207.67297	419.75879 
1387	13.860	543.61530	1197.56934	482.23322	424.38397	1048.84497	541.50507	190.31447	1352.89661	393.77109	232.36755	1293.58618	494.12662	298.00845	1207.30347	487.89456	199.55959	1207.64380	419.82602 
1388	13.870	543.65198	1197.70801	482.46402	424.15369	1048.78906	541.55585	190.19859	1352.91357	393.83704	232.25522	1293.56091	494.18585	297.84012	1207.23938	488.02823	199.41803	1207.61621	419.92020 
1389	13.880	543.49579	1197.63647	482.51511	423.95078	1048.66943	541.65015	190.12581	1352.91821	393.88821	232.15167	1293.53406	494.23840	297.68909	1207.10449	488.10992	199.27200	1207.59644	420.00885 
1390	13.890	543.13348	1197.29126	482.37299	423.83603	1048.57935	541.75873	190.06535	1352.94250	393.92050	232.05130	1293.51770	494.27411	297.47476	1207.04260	488.20306	199.15686	1207.54443	420.05527 
1391	13.900	543.25201	1197.62451	482.83624	423.71423	1048.56335	541.86627	190.06169	1352.93005	393.92227	231.94418	1293.49329	494.30884	297.26276	1207.00793	488.33521	199.00888	1207.52673	420.11176 
1392	13.910	543.08545	1197.60144	482.98590	423.53827	1048.56262	542.02002	190.07037	1352.91370	393.94467	231.83598	1293.43726	494.36276	297.11322	1206.90234	488.45160	198.84546	1207.52405	420.17566 
1393	13.920	542.62079	1197.14783	482.80606	423.35422	1048.56030	542.19153	190.05777	1352.90112	394.00278	231.72186	1293.40259	494.44882	296.91409	1206.86133	488.59256	198.75671	1207.45166	420.26389 
1394	13.930	542.40570	1197.04248	482.91849	423.20984	1048.54138	542.35052	190.01164	1352.86743	394.07281	231.62712	1293.39062	494.54620	296.73358	1206.83545	488.74777	198.65533	1207.36975	420.37759 
1395	13.940	542.26099	1197.04041	483.11972	423.07373	1048.49487	542.53680	189.97179	1352.81616	394.13895	231.58673	1293.34338	494.63971	296.63120	1206.78345	488.89426	198.52611	1207.31360	420.49536 
1396	13.950	542.14056	1197.07349	483.39923	422.87387	1048.47156	542.79327	189.98270	1352.76819	394.20120	231.54930	1293.33362	494.77786	296.50525	1206.74927	489.05682	198.46526	1207.23718	420.63788 
1397	13.960	542.12787	1197.23218	483.80051	422.65140	1048.48767	543.09131	189.97420	1352.77417	394.32501	231.46928	1293.39917	495.00195	296.37430	1206.66724	489.25885	198.42889	1207.14905	420.82883 
1398	13.970	542.20557	1197.48755	484.29047	422.35742	1048.38306	543.51080	189.95815	1352.82092	394.52200	231.36583	1293.49219	495.27756	296.28622	1206.58850	489.53482	198.36620	1207.06067	421.06119 
1399	13.980	542.15515	1197.58105	484.71396	422.07260	1048.25012	544.04358	189.97801	1352.86426	394.75220	231.28067	1293.59729	495.55569	296.18323	1206.60815	489.90182	198.30594	1206.98254	421.31732 
1400	13.990	541.98389	1197.53687	485.10718	422.01041	1048.33240	544.52631	189.97748	1352.95764	395.02863	231.22984	1293.70618	495.84439	296.00912	1206.71326	490.38925	198.22322	1206.97949	421.66412 
1401	14.000	541.78589	1197.48279	485.62698	421.83887	1048.54260	545.04388	189.93417	1353.14648	395.36307	231.20386	1293.81152	496.15204	295.83130	1206.80042	490.95099	198.04839	1207.11877	422.15216 
1402	14.010	541.60724	1197.42871	486.22531	421.50897	1048.72864	545.77277	189.92146	1353.31445	395.71005	231.16791	1293.93579	496.48282	295.71454	1206.79529	491.53348	197.81569	1207.36243	422.74359 
1403	14.020	541.49548	1197.35303	486.85934	421.40720	1048.77490	546.73413	190.00592	1353.35425	396.01108	231.08586	1294.13586	496.91437	295.57434	1206.81592	492.20325	197.62834	1207.64136	423.45340 
1404	14.030	541.34113	1197.25427	487.65881	421.39716	1048.70496	547.80884	190.12656	1353.34985	396.28897	230.95253	1294.43860	497.47336	295.36456	1206.95166	493.02808	197.50288	1207.94458	424.24637 
